<svg width="541" height="81" viewBox="0 0 541 81" fill="none" xmlns="http://www.w3.org/2000/svg">
<path d="M66.9514 35.0625C66.9514 52.2214 53.0556 66.125 35.9223 66.125C18.789 66.125 4.89319 52.2214 4.89319 35.0625C4.89319 17.9036 18.789 4 35.9223 4C53.0556 4 66.9514 17.9036 66.9514 35.0625Z" stroke="#006EE2" stroke-width="8"/>
<path d="M58.2136 60.5625L74.136 76.5" stroke="#006EE2" stroke-width="8" stroke-linecap="round" stroke-linejoin="round"/>
<path d="M107.612 70C106.483 70 105.533 69.615 104.763 68.845C104.045 68.075 103.685 67.1253 103.685 65.996V13.867C103.685 12.7377 104.07 11.788 104.84 11.018C105.61 10.248 106.534 9.863 107.612 9.863C108.742 9.863 109.691 10.248 110.461 11.018C111.231 11.788 111.616 12.7377 111.616 13.867V61.992H139.49C140.62 61.992 141.569 62.377 142.339 63.147C143.109 63.917 143.494 64.8667 143.494 65.996C143.494 67.1253 143.109 68.075 142.339 68.845C141.569 69.615 140.62 70 139.49 70H107.612ZM170.26 70.308C166.102 70.308 162.431 69.4097 159.249 67.613C156.066 65.765 153.551 63.2497 151.703 60.067C149.906 56.833 149.008 53.137 149.008 48.979C149.008 44.7697 149.906 41.0737 151.703 37.891C153.551 34.657 156.066 32.1417 159.249 30.345C162.431 28.497 166.102 27.573 170.26 27.573C174.366 27.573 178.011 28.497 181.194 30.345C184.376 32.1417 186.866 34.657 188.663 37.891C190.511 41.0737 191.435 44.7697 191.435 48.979C191.435 53.137 190.536 56.833 188.74 60.067C186.943 63.2497 184.453 65.765 181.271 67.613C178.088 69.4097 174.418 70.308 170.26 70.308ZM170.26 63.378C172.929 63.378 175.29 62.762 177.344 61.53C179.397 60.298 180.988 58.604 182.118 56.448C183.298 54.292 183.889 51.8023 183.889 48.979C183.889 46.1557 183.298 43.666 182.118 41.51C180.988 39.3027 179.397 37.583 177.344 36.351C175.29 35.119 172.929 34.503 170.26 34.503C167.59 34.503 165.229 35.119 163.176 36.351C161.122 37.583 159.505 39.3027 158.325 41.51C157.144 43.666 156.554 46.1557 156.554 48.979C156.554 51.8023 157.144 54.292 158.325 56.448C159.505 58.604 161.122 60.298 163.176 61.53C165.229 62.762 167.59 63.378 170.26 63.378ZM221.065 70.308C216.907 70.308 213.236 69.4097 210.054 67.613C206.871 65.765 204.356 63.2497 202.508 60.067C200.711 56.833 199.813 53.137 199.813 48.979C199.813 44.7697 200.711 41.0737 202.508 37.891C204.356 34.657 206.871 32.1417 210.054 30.345C213.236 28.497 216.907 27.573 221.065 27.573C225.171 27.573 228.816 28.497 231.999 30.345C235.181 32.1417 237.671 34.657 239.468 37.891C241.316 41.0737 242.24 44.7697 242.24 48.979C242.24 53.137 241.341 56.833 239.545 60.067C237.748 63.2497 235.258 65.765 232.076 67.613C228.893 69.4097 225.223 70.308 221.065 70.308ZM221.065 63.378C223.734 63.378 226.095 62.762 228.149 61.53C230.202 60.298 231.793 58.604 232.923 56.448C234.103 54.292 234.694 51.8023 234.694 48.979C234.694 46.1557 234.103 43.666 232.923 41.51C231.793 39.3027 230.202 37.583 228.149 36.351C226.095 35.119 223.734 34.503 221.065 34.503C218.395 34.503 216.034 35.119 213.981 36.351C211.927 37.583 210.31 39.3027 209.13 41.51C207.949 43.666 207.359 46.1557 207.359 48.979C207.359 51.8023 207.949 54.292 209.13 56.448C210.31 58.604 211.927 60.298 213.981 61.53C216.034 62.762 218.395 63.378 221.065 63.378ZM256.546 70C255.417 70 254.493 69.6663 253.774 68.999C253.107 68.2803 252.773 67.3563 252.773 66.227V13.636C252.773 12.5067 253.107 11.6083 253.774 10.941C254.493 10.2223 255.417 9.863 256.546 9.863C257.676 9.863 258.574 10.2223 259.241 10.941C259.96 11.6083 260.319 12.5067 260.319 13.636V44.975L279.03 28.266C279.8 27.5473 280.647 27.2137 281.571 27.265C282.547 27.3163 283.368 27.727 284.035 28.497C284.754 29.267 285.088 30.114 285.036 31.038C284.985 31.962 284.574 32.7833 283.804 33.502L269.636 46.13L284.574 64.456C285.242 65.2773 285.524 66.1757 285.421 67.151C285.37 68.075 284.908 68.8963 284.035 69.615C283.214 70.2823 282.29 70.5647 281.263 70.462C280.288 70.4107 279.467 69.9743 278.799 69.153L264.169 51.058L260.319 54.446V66.227C260.319 67.3563 259.96 68.2803 259.241 68.999C258.574 69.6663 257.676 70 256.546 70ZM309.178 70.308C305.431 70.308 302.069 69.384 299.091 67.536C296.114 65.6367 293.753 63.0957 292.007 59.913C290.313 56.679 289.466 53.0343 289.466 48.979C289.466 44.9237 290.39 41.279 292.238 38.045C294.138 34.811 296.679 32.27 299.861 30.422C303.095 28.5227 306.714 27.573 310.718 27.573C314.722 27.573 318.316 28.5227 321.498 30.422C324.681 32.27 327.196 34.811 329.044 38.045C330.944 41.279 331.893 44.9237 331.893 48.979V66.15C331.893 67.2793 331.508 68.229 330.738 68.999C330.02 69.7177 329.096 70.077 327.966 70.077C326.837 70.077 325.887 69.7177 325.117 68.999C324.399 68.229 324.039 67.2793 324.039 66.15V63.301C322.243 65.457 320.061 67.1767 317.494 68.46C314.979 69.692 312.207 70.308 309.178 70.308ZM310.718 63.378C313.336 63.378 315.672 62.762 317.725 61.53C319.779 60.2467 321.396 58.527 322.576 56.371C323.757 54.1637 324.347 51.6997 324.347 48.979C324.347 46.207 323.757 43.743 322.576 41.587C321.396 39.3797 319.779 37.66 317.725 36.428C315.672 35.1447 313.336 34.503 310.718 34.503C308.152 34.503 305.816 35.1447 303.711 36.428C301.658 37.66 300.015 39.3797 298.783 41.587C297.603 43.743 297.012 46.207 297.012 48.979C297.012 51.6997 297.603 54.1637 298.783 56.371C300.015 58.527 301.658 60.2467 303.711 61.53C305.816 62.762 308.152 63.378 310.718 63.378ZM346.354 70.077C345.225 70.077 344.275 69.7177 343.505 68.999C342.787 68.229 342.427 67.2793 342.427 66.15V31.808C342.427 30.6273 342.787 29.6777 343.505 28.959C344.275 28.2403 345.225 27.881 346.354 27.881C347.535 27.881 348.485 28.2403 349.203 28.959C349.922 29.6777 350.281 30.6273 350.281 31.808V32.655C351.873 31.0637 353.798 29.806 356.056 28.882C358.315 27.958 360.753 27.496 363.371 27.496C366.913 27.496 370.07 28.266 372.842 29.806C375.666 31.2947 377.873 33.502 379.464 36.428C381.107 39.354 381.928 42.9473 381.928 47.208V66.15C381.928 67.2793 381.543 68.229 380.773 68.999C380.055 69.7177 379.131 70.077 378.001 70.077C376.872 70.077 375.922 69.7177 375.152 68.999C374.434 68.229 374.074 67.2793 374.074 66.15V47.208C374.074 42.8447 372.894 39.662 370.532 37.66C368.222 35.6067 365.322 34.58 361.831 34.58C359.675 34.58 357.725 35.0163 355.979 35.889C354.234 36.7617 352.848 37.9423 351.821 39.431C350.795 40.8683 350.281 42.5367 350.281 44.436V66.15C350.281 67.2793 349.922 68.229 349.203 68.999C348.485 69.7177 347.535 70.077 346.354 70.077ZM346.354 54.677C345.225 54.677 344.275 54.3177 343.505 53.599C342.787 52.829 342.427 51.8793 342.427 50.75V13.79C342.427 12.6093 342.787 11.6597 343.505 10.941C344.275 10.2223 345.225 9.863 346.354 9.863C347.535 9.863 348.485 10.2223 349.203 10.941C349.922 11.6597 350.281 12.6093 350.281 13.79V50.75C350.281 51.8793 349.922 52.829 349.203 53.599C348.485 54.3177 347.535 54.677 346.354 54.677ZM413.623 70.308C409.362 70.308 405.564 69.4097 402.227 67.613C398.942 65.765 396.349 63.2497 394.45 60.067C392.602 56.833 391.678 53.137 391.678 48.979C391.678 44.7697 392.551 41.0737 394.296 37.891C396.093 34.657 398.557 32.1417 401.688 30.345C404.819 28.497 408.413 27.573 412.468 27.573C416.472 27.573 419.911 28.4713 422.786 30.268C425.661 32.0133 427.842 34.4517 429.331 37.583C430.871 40.663 431.641 44.2307 431.641 48.286C431.641 49.2613 431.307 50.0827 430.64 50.75C429.973 51.366 429.126 51.674 428.099 51.674H398.839C399.404 55.216 401.021 58.1163 403.69 60.375C406.411 62.5823 409.722 63.686 413.623 63.686C415.214 63.686 416.831 63.4037 418.474 62.839C420.168 62.223 421.528 61.53 422.555 60.76C423.325 60.1953 424.146 59.913 425.019 59.913C425.943 59.8617 426.739 60.1183 427.406 60.683C428.279 61.453 428.741 62.3 428.792 63.224C428.843 64.148 428.433 64.9437 427.56 65.611C425.815 66.997 423.633 68.1263 421.015 68.999C418.448 69.8717 415.984 70.308 413.623 70.308ZM412.468 34.195C408.669 34.195 405.615 35.2473 403.305 37.352C400.995 39.4567 399.532 42.1773 398.916 45.514H424.557C424.095 42.2287 422.837 39.5337 420.784 37.429C418.731 35.273 415.959 34.195 412.468 34.195ZM456.555 70.308C452.808 70.308 449.446 69.384 446.468 67.536C443.491 65.6367 441.13 63.0957 439.384 59.913C437.69 56.679 436.843 53.0343 436.843 48.979C436.843 44.9237 437.767 41.279 439.615 38.045C441.515 34.811 444.056 32.27 447.238 30.422C450.472 28.5227 454.091 27.573 458.095 27.573C462.099 27.573 465.693 28.5227 468.875 30.422C472.058 32.27 474.573 34.811 476.421 38.045C478.321 41.279 479.27 44.9237 479.27 48.979V66.15C479.27 67.2793 478.885 68.229 478.115 68.999C477.397 69.7177 476.473 70.077 475.343 70.077C474.214 70.077 473.264 69.7177 472.494 68.999C471.776 68.229 471.416 67.2793 471.416 66.15V63.301C469.62 65.457 467.438 67.1767 464.871 68.46C462.356 69.692 459.584 70.308 456.555 70.308ZM458.095 63.378C460.713 63.378 463.049 62.762 465.102 61.53C467.156 60.2467 468.773 58.527 469.953 56.371C471.134 54.1637 471.724 51.6997 471.724 48.979C471.724 46.207 471.134 43.743 469.953 41.587C468.773 39.3797 467.156 37.66 465.102 36.428C463.049 35.1447 460.713 34.503 458.095 34.503C455.529 34.503 453.193 35.1447 451.088 36.428C449.035 37.66 447.392 39.3797 446.16 41.587C444.98 43.743 444.389 46.207 444.389 48.979C444.389 51.6997 444.98 54.1637 446.16 56.371C447.392 58.527 449.035 60.2467 451.088 61.53C453.193 62.762 455.529 63.378 458.095 63.378ZM508.9 70.308C504.896 70.308 501.277 69.384 498.043 67.536C494.86 65.6367 492.319 63.07 490.42 59.836C488.572 56.602 487.648 52.9573 487.648 48.902C487.648 44.8467 488.495 41.2277 490.189 38.045C491.934 34.811 494.296 32.27 497.273 30.422C500.25 28.5227 503.613 27.573 507.36 27.573C510.389 27.573 513.186 28.2147 515.753 29.498C518.32 30.73 520.476 32.424 522.221 34.58V13.79C522.221 12.6093 522.58 11.6597 523.299 10.941C524.069 10.2223 525.019 9.863 526.148 9.863C527.329 9.863 528.278 10.2223 528.997 10.941C529.716 11.6597 530.075 12.6093 530.075 13.79V48.902C530.075 52.9573 529.125 56.602 527.226 59.836C525.378 63.07 522.863 65.6367 519.68 67.536C516.497 69.384 512.904 70.308 508.9 70.308ZM508.9 63.378C511.518 63.378 513.854 62.762 515.907 61.53C517.96 60.2467 519.577 58.5013 520.758 56.294C521.939 54.0867 522.529 51.6227 522.529 48.902C522.529 46.13 521.939 43.666 520.758 41.51C519.577 39.354 517.96 37.66 515.907 36.428C513.854 35.1447 511.518 34.503 508.9 34.503C506.333 34.503 503.998 35.1447 501.893 36.428C499.84 37.66 498.197 39.354 496.965 41.51C495.784 43.666 495.194 46.13 495.194 48.902C495.194 51.6227 495.784 54.0867 496.965 56.294C498.197 58.5013 499.84 60.2467 501.893 61.53C503.998 62.762 506.333 63.378 508.9 63.378Z" fill="#006EE2"/>
</svg>
