<svg width="530" height="102" viewBox="0 0 530 102" fill="none" xmlns="http://www.w3.org/2000/svg">
<path d="M66.9514 35.0625C66.9514 52.2214 53.0556 66.125 35.9223 66.125C18.789 66.125 4.89319 52.2214 4.89319 35.0625C4.89319 17.9036 18.789 4 35.9223 4C53.0556 4 66.9514 17.9036 66.9514 35.0625Z" stroke="white" stroke-width="8"/>
<path d="M58.2136 60.5625L74.136 76.5" stroke="white" stroke-width="8" stroke-linecap="round" stroke-linejoin="round"/>
<path d="M106.612 70C105.483 70 104.533 69.615 103.763 68.845C103.045 68.075 102.685 67.1253 102.685 65.996V13.867C102.685 12.7377 103.07 11.788 103.84 11.018C104.61 10.248 105.534 9.863 106.612 9.863C107.742 9.863 108.691 10.248 109.461 11.018C110.231 11.788 110.616 12.7377 110.616 13.867V61.992H138.49C139.62 61.992 140.569 62.377 141.339 63.147C142.109 63.917 142.494 64.8667 142.494 65.996C142.494 67.1253 142.109 68.075 141.339 68.845C140.569 69.615 139.62 70 138.49 70H106.612ZM169.26 70.308C165.102 70.308 161.431 69.4097 158.249 67.613C155.066 65.765 152.551 63.2497 150.703 60.067C148.906 56.833 148.008 53.137 148.008 48.979C148.008 44.7697 148.906 41.0737 150.703 37.891C152.551 34.657 155.066 32.1417 158.249 30.345C161.431 28.497 165.102 27.573 169.26 27.573C173.366 27.573 177.011 28.497 180.194 30.345C183.376 32.1417 185.866 34.657 187.663 37.891C189.511 41.0737 190.435 44.7697 190.435 48.979C190.435 53.137 189.536 56.833 187.74 60.067C185.943 63.2497 183.453 65.765 180.271 67.613C177.088 69.4097 173.418 70.308 169.26 70.308ZM169.26 63.378C171.929 63.378 174.29 62.762 176.344 61.53C178.397 60.298 179.988 58.604 181.118 56.448C182.298 54.292 182.889 51.8023 182.889 48.979C182.889 46.1557 182.298 43.666 181.118 41.51C179.988 39.3027 178.397 37.583 176.344 36.351C174.29 35.119 171.929 34.503 169.26 34.503C166.59 34.503 164.229 35.119 162.176 36.351C160.122 37.583 158.505 39.3027 157.325 41.51C156.144 43.666 155.554 46.1557 155.554 48.979C155.554 51.8023 156.144 54.292 157.325 56.448C158.505 58.604 160.122 60.298 162.176 61.53C164.229 62.762 166.59 63.378 169.26 63.378ZM220.065 70.308C215.907 70.308 212.236 69.4097 209.054 67.613C205.871 65.765 203.356 63.2497 201.508 60.067C199.711 56.833 198.813 53.137 198.813 48.979C198.813 44.7697 199.711 41.0737 201.508 37.891C203.356 34.657 205.871 32.1417 209.054 30.345C212.236 28.497 215.907 27.573 220.065 27.573C224.171 27.573 227.816 28.497 230.999 30.345C234.181 32.1417 236.671 34.657 238.468 37.891C240.316 41.0737 241.24 44.7697 241.24 48.979C241.24 53.137 240.341 56.833 238.545 60.067C236.748 63.2497 234.258 65.765 231.076 67.613C227.893 69.4097 224.223 70.308 220.065 70.308ZM220.065 63.378C222.734 63.378 225.095 62.762 227.149 61.53C229.202 60.298 230.793 58.604 231.923 56.448C233.103 54.292 233.694 51.8023 233.694 48.979C233.694 46.1557 233.103 43.666 231.923 41.51C230.793 39.3027 229.202 37.583 227.149 36.351C225.095 35.119 222.734 34.503 220.065 34.503C217.395 34.503 215.034 35.119 212.981 36.351C210.927 37.583 209.31 39.3027 208.13 41.51C206.949 43.666 206.359 46.1557 206.359 48.979C206.359 51.8023 206.949 54.292 208.13 56.448C209.31 58.604 210.927 60.298 212.981 61.53C215.034 62.762 217.395 63.378 220.065 63.378ZM255.546 70C254.417 70 253.493 69.6663 252.774 68.999C252.107 68.2803 251.773 67.3563 251.773 66.227V13.636C251.773 12.5067 252.107 11.6083 252.774 10.941C253.493 10.2223 254.417 9.863 255.546 9.863C256.676 9.863 257.574 10.2223 258.241 10.941C258.96 11.6083 259.319 12.5067 259.319 13.636V44.975L278.03 28.266C278.8 27.5473 279.647 27.2137 280.571 27.265C281.547 27.3163 282.368 27.727 283.035 28.497C283.754 29.267 284.088 30.114 284.036 31.038C283.985 31.962 283.574 32.7833 282.804 33.502L268.636 46.13L283.574 64.456C284.242 65.2773 284.524 66.1757 284.421 67.151C284.37 68.075 283.908 68.8963 283.035 69.615C282.214 70.2823 281.29 70.5647 280.263 70.462C279.288 70.4107 278.467 69.9743 277.799 69.153L263.169 51.058L259.319 54.446V66.227C259.319 67.3563 258.96 68.2803 258.241 68.999C257.574 69.6663 256.676 70 255.546 70ZM308.178 70.308C304.431 70.308 301.069 69.384 298.091 67.536C295.114 65.6367 292.753 63.0957 291.007 59.913C289.313 56.679 288.466 53.0343 288.466 48.979C288.466 44.9237 289.39 41.279 291.238 38.045C293.138 34.811 295.679 32.27 298.861 30.422C302.095 28.5227 305.714 27.573 309.718 27.573C313.722 27.573 317.316 28.5227 320.498 30.422C323.681 32.27 326.196 34.811 328.044 38.045C329.944 41.279 330.893 44.9237 330.893 48.979V66.15C330.893 67.2793 330.508 68.229 329.738 68.999C329.02 69.7177 328.096 70.077 326.966 70.077C325.837 70.077 324.887 69.7177 324.117 68.999C323.399 68.229 323.039 67.2793 323.039 66.15V63.301C321.243 65.457 319.061 67.1767 316.494 68.46C313.979 69.692 311.207 70.308 308.178 70.308ZM309.718 63.378C312.336 63.378 314.672 62.762 316.725 61.53C318.779 60.2467 320.396 58.527 321.576 56.371C322.757 54.1637 323.347 51.6997 323.347 48.979C323.347 46.207 322.757 43.743 321.576 41.587C320.396 39.3797 318.779 37.66 316.725 36.428C314.672 35.1447 312.336 34.503 309.718 34.503C307.152 34.503 304.816 35.1447 302.711 36.428C300.658 37.66 299.015 39.3797 297.783 41.587C296.603 43.743 296.012 46.207 296.012 48.979C296.012 51.6997 296.603 54.1637 297.783 56.371C299.015 58.527 300.658 60.2467 302.711 61.53C304.816 62.762 307.152 63.378 309.718 63.378ZM345.354 70.077C344.225 70.077 343.275 69.7177 342.505 68.999C341.787 68.229 341.427 67.2793 341.427 66.15V31.808C341.427 30.6273 341.787 29.6777 342.505 28.959C343.275 28.2403 344.225 27.881 345.354 27.881C346.535 27.881 347.485 28.2403 348.203 28.959C348.922 29.6777 349.281 30.6273 349.281 31.808V32.655C350.873 31.0637 352.798 29.806 355.056 28.882C357.315 27.958 359.753 27.496 362.371 27.496C365.913 27.496 369.07 28.266 371.842 29.806C374.666 31.2947 376.873 33.502 378.464 36.428C380.107 39.354 380.928 42.9473 380.928 47.208V66.15C380.928 67.2793 380.543 68.229 379.773 68.999C379.055 69.7177 378.131 70.077 377.001 70.077C375.872 70.077 374.922 69.7177 374.152 68.999C373.434 68.229 373.074 67.2793 373.074 66.15V47.208C373.074 42.8447 371.894 39.662 369.532 37.66C367.222 35.6067 364.322 34.58 360.831 34.58C358.675 34.58 356.725 35.0163 354.979 35.889C353.234 36.7617 351.848 37.9423 350.821 39.431C349.795 40.8683 349.281 42.5367 349.281 44.436V66.15C349.281 67.2793 348.922 68.229 348.203 68.999C347.485 69.7177 346.535 70.077 345.354 70.077ZM345.354 54.677C344.225 54.677 343.275 54.3177 342.505 53.599C341.787 52.829 341.427 51.8793 341.427 50.75V13.79C341.427 12.6093 341.787 11.6597 342.505 10.941C343.275 10.2223 344.225 9.863 345.354 9.863C346.535 9.863 347.485 10.2223 348.203 10.941C348.922 11.6597 349.281 12.6093 349.281 13.79V50.75C349.281 51.8793 348.922 52.829 348.203 53.599C347.485 54.3177 346.535 54.677 345.354 54.677ZM412.623 70.308C408.362 70.308 404.564 69.4097 401.227 67.613C397.942 65.765 395.349 63.2497 393.45 60.067C391.602 56.833 390.678 53.137 390.678 48.979C390.678 44.7697 391.551 41.0737 393.296 37.891C395.093 34.657 397.557 32.1417 400.688 30.345C403.819 28.497 407.413 27.573 411.468 27.573C415.472 27.573 418.911 28.4713 421.786 30.268C424.661 32.0133 426.842 34.4517 428.331 37.583C429.871 40.663 430.641 44.2307 430.641 48.286C430.641 49.2613 430.307 50.0827 429.64 50.75C428.973 51.366 428.126 51.674 427.099 51.674H397.839C398.404 55.216 400.021 58.1163 402.69 60.375C405.411 62.5823 408.722 63.686 412.623 63.686C414.214 63.686 415.831 63.4037 417.474 62.839C419.168 62.223 420.528 61.53 421.555 60.76C422.325 60.1953 423.146 59.913 424.019 59.913C424.943 59.8617 425.739 60.1183 426.406 60.683C427.279 61.453 427.741 62.3 427.792 63.224C427.843 64.148 427.433 64.9437 426.56 65.611C424.815 66.997 422.633 68.1263 420.015 68.999C417.448 69.8717 414.984 70.308 412.623 70.308ZM411.468 34.195C407.669 34.195 404.615 35.2473 402.305 37.352C399.995 39.4567 398.532 42.1773 397.916 45.514H423.557C423.095 42.2287 421.837 39.5337 419.784 37.429C417.731 35.273 414.959 34.195 411.468 34.195ZM455.555 70.308C451.808 70.308 448.446 69.384 445.468 67.536C442.491 65.6367 440.13 63.0957 438.384 59.913C436.69 56.679 435.843 53.0343 435.843 48.979C435.843 44.9237 436.767 41.279 438.615 38.045C440.515 34.811 443.056 32.27 446.238 30.422C449.472 28.5227 453.091 27.573 457.095 27.573C461.099 27.573 464.693 28.5227 467.875 30.422C471.058 32.27 473.573 34.811 475.421 38.045C477.321 41.279 478.27 44.9237 478.27 48.979V66.15C478.27 67.2793 477.885 68.229 477.115 68.999C476.397 69.7177 475.473 70.077 474.343 70.077C473.214 70.077 472.264 69.7177 471.494 68.999C470.776 68.229 470.416 67.2793 470.416 66.15V63.301C468.62 65.457 466.438 67.1767 463.871 68.46C461.356 69.692 458.584 70.308 455.555 70.308ZM457.095 63.378C459.713 63.378 462.049 62.762 464.102 61.53C466.156 60.2467 467.773 58.527 468.953 56.371C470.134 54.1637 470.724 51.6997 470.724 48.979C470.724 46.207 470.134 43.743 468.953 41.587C467.773 39.3797 466.156 37.66 464.102 36.428C462.049 35.1447 459.713 34.503 457.095 34.503C454.529 34.503 452.193 35.1447 450.088 36.428C448.035 37.66 446.392 39.3797 445.16 41.587C443.98 43.743 443.389 46.207 443.389 48.979C443.389 51.6997 443.98 54.1637 445.16 56.371C446.392 58.527 448.035 60.2467 450.088 61.53C452.193 62.762 454.529 63.378 457.095 63.378ZM507.9 70.308C503.896 70.308 500.277 69.384 497.043 67.536C493.86 65.6367 491.319 63.07 489.42 59.836C487.572 56.602 486.648 52.9573 486.648 48.902C486.648 44.8467 487.495 41.2277 489.189 38.045C490.934 34.811 493.296 32.27 496.273 30.422C499.25 28.5227 502.613 27.573 506.36 27.573C509.389 27.573 512.186 28.2147 514.753 29.498C517.32 30.73 519.476 32.424 521.221 34.58V13.79C521.221 12.6093 521.58 11.6597 522.299 10.941C523.069 10.2223 524.019 9.863 525.148 9.863C526.329 9.863 527.278 10.2223 527.997 10.941C528.716 11.6597 529.075 12.6093 529.075 13.79V48.902C529.075 52.9573 528.125 56.602 526.226 59.836C524.378 63.07 521.863 65.6367 518.68 67.536C515.497 69.384 511.904 70.308 507.9 70.308ZM507.9 63.378C510.518 63.378 512.854 62.762 514.907 61.53C516.96 60.2467 518.577 58.5013 519.758 56.294C520.939 54.0867 521.529 51.6227 521.529 48.902C521.529 46.13 520.939 43.666 519.758 41.51C518.577 39.354 516.96 37.66 514.907 36.428C512.854 35.1447 510.518 34.503 507.9 34.503C505.333 34.503 502.998 35.1447 500.893 36.428C498.84 37.66 497.197 39.354 495.965 41.51C494.784 43.666 494.194 46.13 494.194 48.902C494.194 51.6227 494.784 54.0867 495.965 56.294C497.197 58.5013 498.84 60.2467 500.893 61.53C502.998 62.762 505.333 63.378 507.9 63.378Z" fill="white"/>
</svg>
