<svg width="121" height="51" viewBox="0 0 121 51" fill="none" xmlns="http://www.w3.org/2000/svg">
<path d="M84 51L20 51C8.95431 51 6.84658e-06 42.0457 5.88094e-06 31L4.91929e-06 20C3.95364e-06 8.95431 8.95431 -1.06869e-06 20 -2.03434e-06L84 -7.62939e-06L84 51Z" fill="#FF6868"/>
<path d="M119.856 23.4027L85.1846 0.453031C84.7844 0.188327 84.3162 0.03332 83.8306 0.00479619C83.3449 -0.0237277 82.8603 0.0753172 82.4293 0.291207C81.9983 0.507097 81.6373 0.831608 81.3854 1.2296C81.1334 1.62759 81.0002 2.08389 81 2.5491L81 48.4483C80.9997 48.9138 81.1326 49.3704 81.3843 49.7688C81.6361 50.1671 81.9971 50.492 82.4282 50.7082C82.8592 50.9244 83.344 51.0237 83.8299 50.9952C84.3158 50.9668 84.7843 50.8118 85.1846 50.547L119.856 27.5973C120.209 27.3616 120.498 27.0479 120.697 26.6827C120.896 26.3176 121 25.9118 121 25.5C121 25.0882 120.896 24.6824 120.697 24.3173C120.498 23.9521 120.209 23.6384 119.856 23.4027Z" fill="#FF6868"/>
</svg>
